<?xml version="1.0" standalone="no"?>
<!DOCTYPE svg PUBLIC "-//W3C//DTD SVG 20010904//EN"
 "http://www.w3.org/TR/2001/REC-SVG-20010904/DTD/svg10.dtd">
<svg version="1.0" xmlns="http://www.w3.org/2000/svg"
 width="724.000000pt" height="724.000000pt" viewBox="0 0 724.000000 724.000000"
 preserveAspectRatio="xMidYMid meet">
<metadata>
Created by potrace 1.14, written by Peter Selinger 2001-2017
</metadata>
<g transform="translate(0.000000,724.000000) scale(0.100000,-0.100000)"
fill="#000000" stroke="none">
<path d="M1205 6343 c-103 -56 -151 -209 -132 -423 4 -36 9 -94 11 -130 3 -36
8 -99 11 -140 3 -41 8 -104 10 -140 2 -36 7 -99 10 -140 3 -41 8 -109 10 -150
3 -41 7 -107 10 -147 3 -39 8 -114 11 -165 3 -51 7 -118 9 -148 10 -164 17
-278 19 -305 3 -41 -17 -127 -36 -154 -31 -44 -82 -64 -159 -63 -52 1 -231 78
-336 145 -24 15 -47 27 -53 27 -5 0 -10 3 -10 8 0 4 -17 16 -37 27 -20 11 -41
25 -47 30 -28 28 -127 74 -180 85 -177 36 -272 -6 -305 -135 -15 -59 -11 -253
5 -293 20 -47 111 -134 174 -167 105 -55 174 -119 217 -204 43 -85 77 -123
173 -198 82 -64 246 -173 260 -173 5 0 10 -4 10 -10 0 -5 4 -10 9 -10 4 0 46
-22 92 -48 76 -44 222 -120 274 -143 43 -19 212 -70 248 -76 21 -3 46 -6 55
-8 9 -2 22 -4 28 -4 7 -1 15 -18 19 -38 12 -63 54 -184 96 -270 45 -95 76
-119 173 -137 82 -16 261 -11 366 9 13 3 42 7 65 10 22 3 65 10 95 16 30 6 64
12 75 14 11 1 36 6 55 9 113 21 157 29 175 31 11 1 20 3 20 5 0 4 53 9 152 15
153 9 240 -14 398 -104 22 -13 49 -31 60 -40 32 -28 131 -90 161 -101 34 -13
94 -4 149 21 40 19 41 19 84 -2 98 -47 244 -55 390 -23 114 26 350 126 456
193 22 14 48 30 57 36 9 5 33 20 54 33 l36 23 -6 -113 c-3 -62 -8 -124 -10
-138 -2 -14 -7 -63 -11 -110 -3 -47 -8 -98 -10 -115 -2 -16 -6 -52 -9 -80 -3
-27 -8 -61 -10 -75 -3 -14 -7 -47 -11 -75 -3 -27 -8 -57 -10 -65 -2 -8 -6 -36
-10 -63 -10 -82 -62 -271 -88 -323 -42 -83 -64 -92 -137 -56 -45 22 -58 32
-180 142 -150 136 -208 169 -292 167 -68 -2 -112 -33 -170 -118 -166 -240
-162 -413 10 -531 96 -66 485 -254 614 -296 70 -23 131 -42 135 -41 4 1 10 0
13 -1 21 -8 58 -12 140 -15 80 -3 106 0 163 19 38 13 77 33 88 44 10 12 24 24
32 29 42 26 397 546 397 581 0 6 4 12 8 14 5 2 26 37 48 78 21 41 44 81 51 88
7 7 13 18 13 24 0 6 16 45 36 87 46 95 72 157 80 186 1 6 14 43 28 82 20 59
33 114 41 173 0 3 3 10 6 15 6 11 3 371 -4 423 -2 17 -3 32 -2 32 5 0 91 -31
110 -39 36 -17 231 -76 284 -87 7 -1 34 -7 60 -13 115 -27 181 -35 286 -35
109 0 172 20 207 67 23 29 118 194 118 203 0 2 20 46 45 97 25 52 45 97 45
100 0 4 12 32 26 64 53 118 58 128 60 138 1 6 25 68 53 139 28 71 51 134 51
139 0 5 7 23 15 40 14 32 111 324 120 362 2 11 14 52 26 90 11 39 22 79 24 90
1 11 3 20 4 20 3 0 2 -3 31 135 32 152 31 144 35 274 4 131 -7 176 -55 232
-29 33 -95 85 -113 88 -7 1 -21 7 -32 13 -20 11 -84 30 -140 42 -16 3 -53 6
-80 6 -43 0 -56 -5 -90 -35 -133 -117 -243 -269 -340 -466 -59 -121 -127 -293
-140 -354 -15 -72 -55 -202 -85 -273 -75 -182 -157 -246 -232 -184 -25 20 -61
96 -72 149 -3 13 -8 34 -11 48 -13 55 -21 109 -30 221 -4 41 -9 90 -11 109 -3
19 -6 59 -7 87 -1 29 -6 53 -10 53 -5 0 -5 5 -2 10 19 30 -37 263 -86 358 -75
147 -209 250 -384 297 -82 22 -280 64 -335 70 -25 3 -56 8 -70 10 -107 18
-418 25 -543 11 -90 -9 -196 -31 -277 -58 -36 -12 -67 -21 -70 -22 -10 0 -141
-77 -161 -94 -101 -84 -160 -177 -192 -300 l-13 -53 -44 53 c-100 120 -201
228 -435 463 -250 251 -331 315 -450 355 -62 21 -65 22 -145 25 -41 1 -74 7
-73 11 13 69 21 523 11 600 -3 23 -12 65 -19 94 -24 95 -119 148 -242 137 -51
-5 -88 -19 -222 -87 -88 -44 -169 -83 -180 -85 -11 -3 -36 -8 -55 -13 -103
-26 -201 26 -274 146 -19 31 -52 68 -73 82 -21 14 -40 28 -43 31 -9 12 -112
39 -144 39 -17 -1 -44 -8 -61 -17z"/>
</g>
</svg>
